<svg width="237" height="237" viewBox="0 0 237 237" fill="none" xmlns="http://www.w3.org/2000/svg">
<path d="M104.187 170.756L97.2047 119.812L134.418 113.994C134.418 113.994 143.388 143.1 150.454 171.62" fill="#FFB7AD"/>
<path d="M136.982 123.823C136.982 123.823 137.644 121.888 132.446 105.093C127.249 88.2983 105.661 51.9841 101.846 53.3126C97.9949 54.6384 105.962 70.7975 104.576 71.1336C103.19 71.4697 94.0836 52.3927 90.6826 54.0835C87.2816 55.7744 97.6685 73.4777 96.3422 74.4802C95.0159 75.4827 83.6489 53.7337 79.9813 56.0294C76.3138 58.3252 87.4514 75.828 86.5948 76.9397C85.7355 78.088 78.1092 67.6176 74.9159 68.9933C71.7255 70.3324 89.8066 96.1578 89.8066 96.1578C89.8066 96.1578 81.4563 89.8981 78.9754 92.0633C76.649 94.1298 93.8568 113.049 95.9035 115.154L99.7341 129.123L136.982 123.823Z" fill="#FFB7AD"/>
<path d="M94.3391 92.6406C94.3391 92.6406 101.614 89.8096 111.314 95.7305" stroke="#301C14" stroke-width="0.5" stroke-miterlimit="10"/>
<path d="M112.548 84.3145C112.548 84.3145 107.365 84.2889 103.417 92.7043" stroke="#301C14" stroke-width="0.5" stroke-miterlimit="10"/>
</svg>
