<svg width="236" height="236" viewBox="0 0 236 236" fill="none" xmlns="http://www.w3.org/2000/svg">
<path d="M131.821 170.749L138.803 119.804L101.589 113.987C101.589 113.987 92.6192 143.092 85.5534 171.612" fill="#FFB7AD"/>
<path d="M99.0257 123.815C99.0257 123.815 98.364 121.88 103.561 105.085C108.759 88.2905 130.347 51.9763 134.161 53.3048C138.013 54.6306 130.046 70.7897 131.432 71.1258C132.818 71.4619 141.924 52.3849 145.325 54.0757C148.726 55.7666 138.339 73.4699 139.665 74.4724C140.992 75.4749 152.359 53.7258 156.026 56.0216C159.694 58.3173 148.556 75.8202 149.413 76.9319C150.272 78.0802 157.898 67.6098 161.092 68.9855C164.282 70.3246 146.201 96.15 146.201 96.15C146.201 96.15 154.551 89.8903 157.032 92.0554C159.359 94.122 142.151 113.042 140.104 115.146L136.273 129.116L99.0257 123.815Z" fill="#FFB7AD"/>
<path d="M141.669 92.6328C141.669 92.6328 134.394 89.8018 124.694 95.7227" stroke="#301C14" stroke-width="0.5" stroke-miterlimit="10"/>
<path d="M123.46 84.3066C123.46 84.3066 128.643 84.2811 132.591 92.6965" stroke="#301C14" stroke-width="0.5" stroke-miterlimit="10"/>
</svg>
