<?xml version="1.0" encoding="utf-8"?>
<!-- Generator: Adobe Illustrator 19.0.0, SVG Export Plug-In . SVG Version: 6.00 Build 0)  -->
<svg version="1.1" id="Capa_1" xmlns="http://www.w3.org/2000/svg" xmlns:xlink="http://www.w3.org/1999/xlink" x="0px" y="0px"
	 viewBox="0 0 181.5 160.5" style="enable-background:new 0 0 181.5 160.5;" xml:space="preserve">
<style type="text/css">
	.st0{fill:#FFB7AD;}
	.st1{fill:none;stroke:#301C14;stroke-width:0.5;stroke-miterlimit:10;}
</style>
<g id="XMLID_1_">
	<path id="XMLID_5_" class="st0" d="M49.5,146.5l-7-50.9l37.2-5.8c0,0,9,29.1,16,57.6"/>
	<path id="XMLID_4_" class="st0" d="M82.3,99.6c0,0,0.7-1.9-4.5-18.7C72.6,64.1,51,27.8,47.2,29.1c-3.9,1.3,4.1,17.5,2.7,17.8
		C48.5,47.2,39.4,28.2,36,29.9c-3.4,1.7,7,19.4,5.7,20.4c-1.3,1-12.7-20.7-16.4-18.5c-3.7,2.3,7.5,19.8,6.6,20.9
		c-0.9,1.1-8.5-9.3-11.7-7.9c-3.2,1.3,14.9,27.2,14.9,27.2s-8.4-6.3-10.8-4.1c-2.3,2.1,14.9,21,16.9,23.1l3.8,14L82.3,99.6z"/>
	<path id="XMLID_3_" class="st1" d="M39.7,68.4c0,0,7.3-2.8,17,3.1"/>
	<path id="XMLID_2_" class="st1" d="M57.9,60.1c0,0-5.2,0-9.1,8.4"/>
</g>
<g id="XMLID_6_">
	<path id="XMLID_10_" class="st0" d="M136.1,145.7l7-50.9l-37.2-5.8c0,0-9,29.1-16,57.6"/>
	<path id="XMLID_9_" class="st0" d="M103.3,98.8c0,0-0.7-1.9,4.5-18.7c5.2-16.8,26.8-53.1,30.6-51.8c3.9,1.3-4.1,17.5-2.7,17.8
		c1.4,0.3,10.5-18.7,13.9-17.1c3.4,1.7-7,19.4-5.7,20.4c1.3,1,12.7-20.7,16.4-18.5c3.7,2.3-7.5,19.8-6.6,20.9
		c0.9,1.1,8.5-9.3,11.7-7.9c3.2,1.3-14.9,27.2-14.9,27.2s8.3-6.3,10.8-4.1c2.3,2.1-14.9,21-16.9,23.1l-3.8,14L103.3,98.8z"/>
	<path id="XMLID_8_" class="st1" d="M146,67.6c0,0-7.3-2.8-17,3.1"/>
	<path id="XMLID_7_" class="st1" d="M127.8,59.3c0,0,5.2,0,9.1,8.4"/>
</g>
</svg>
