<svg width="230" height="230" viewBox="0 0 230 230" fill="none" xmlns="http://www.w3.org/2000/svg">
<g clip-path="url(#clip0_491_5460)">
<path d="M174.307 157.961H55.5696C51.2571 157.961 47.8071 154.469 47.8071 150.198C47.8071 145.886 51.2982 142.436 55.5696 142.436H174.307C178.62 142.436 182.07 145.927 182.07 150.198C182.111 154.469 178.62 157.961 174.307 157.961Z" fill="#F1E7E7"/>
<path d="M135.294 138.287L134.35 137.425C131.598 135.741 118.701 137.425 121.001 135.987C130.037 130.36 124.862 86.989 126.341 74.0925C125.396 72.9425 123.548 72.2033 121.412 72.1622L107.612 71.9979C104.614 71.9568 102.026 73.4354 101.698 75.3658C100.958 79.6372 100.301 87.4818 99.7674 96.0658V96.1068C101 113.809 102.026 134.632 104.942 136.275C107.283 137.589 100.958 137.096 96.5228 137.589C96.071 137.876 95.5781 138.123 95.0031 138.328C92.8674 139.026 91.9228 140.341 92.0049 141.614C92.0871 143.216 93.8531 144.776 96.8513 144.941H97.3031C97.5496 144.941 97.7549 144.941 98.0013 144.941L131.064 143.832C135.335 143.626 137.717 140.505 135.294 138.287Z" fill="#414141"/>
</g>
<defs>
<clipPath id="clip0_491_5460">
<rect width="230" height="230" fill="white"/>
</clipPath>
</defs>
</svg>
