<svg width="220" height="220" viewBox="0 0 220 220" fill="none" xmlns="http://www.w3.org/2000/svg">
<g clip-path="url(#clip0_637_4316)">
<path d="M165.982 110.118H58.1036V124.182H165.982V110.118Z" fill="#F1E7E7"/>
<path d="M77.7465 96.8394L76.9607 97.6644C75.4286 100.179 76.9607 111.846 75.6643 109.725C70.5572 101.554 31.3107 106.229 19.6429 104.893C18.6215 105.757 17.9143 107.407 17.875 109.332L17.7179 121.786C17.6786 124.496 19.0143 126.854 20.7822 127.129C24.6715 127.796 31.7429 128.386 39.5215 128.857H39.5607C55.5893 127.757 74.4465 126.814 75.9393 124.182C77.1179 122.061 76.6857 127.796 77.1179 131.804C77.3929 132.196 77.5893 132.629 77.7857 133.179C78.4143 135.104 79.5929 135.968 80.7322 135.929C82.1857 135.85 83.6 134.279 83.7179 131.529V131.136C83.7179 130.939 83.7179 130.704 83.7179 130.507L82.7357 100.571C82.5786 96.8394 79.75 94.6786 77.7465 96.8394Z" fill="#414141"/>
<path d="M143 137.107L143.786 136.282C145.318 133.768 143.786 122.1 145.082 124.221C150.189 132.393 189.436 127.718 201.104 129.054C202.125 128.189 202.832 126.539 202.871 124.614L203.029 112.161C203.068 109.45 201.732 107.093 199.964 106.818C196.075 106.15 189.004 105.561 181.225 105.089H181.186C165.157 106.189 146.3 107.132 144.807 109.764C143.629 111.886 144.061 106.15 143.629 102.143C143.354 101.75 143.157 101.318 142.961 100.768C142.332 98.8429 141.154 97.9786 140.014 98.0179C138.561 98.0965 137.146 99.6679 137.029 102.418V102.811C137.029 103.007 137.029 103.243 137.029 103.439L138.011 133.375C138.168 137.107 140.996 139.268 143 137.107Z" fill="#414141"/>
</g>
<defs>
<clipPath id="clip0_637_4316">
<rect width="220" height="220" fill="white"/>
</clipPath>
</defs>
</svg>
