<svg width="230" height="230" viewBox="0 0 230 230" fill="none" xmlns="http://www.w3.org/2000/svg">
<g clip-path="url(#clip0_491_5454)">
<path d="M174.307 157.961H55.5696C51.2571 157.961 47.8071 154.469 47.8071 150.198C47.8071 145.886 51.2982 142.436 55.5696 142.436H174.307C178.62 142.436 182.07 145.927 182.07 150.198C182.111 154.469 178.62 157.961 174.307 157.961Z" fill="#F1E7E7"/>
<path d="M91.8768 138.288L90.9321 137.425C88.1804 135.741 75.2839 137.425 77.5839 135.988C86.6196 130.361 81.4446 86.9895 82.9232 74.093C81.9786 72.943 80.1304 72.2037 77.9946 72.1627L64.1946 71.9984C61.1964 71.9573 58.6089 73.4359 58.2804 75.3662C57.5411 79.6377 56.8839 87.4823 56.35 96.0662V96.1073C57.5821 113.809 58.6089 134.632 61.525 136.275C63.8661 137.589 57.5411 137.097 53.1054 137.589C52.6536 137.877 52.1607 138.123 51.5857 138.329C49.45 139.027 48.5054 140.341 48.5875 141.614C48.6696 143.216 50.4357 144.777 53.4339 144.941H53.8857C54.1321 144.941 54.3375 144.941 54.5839 144.941L87.6464 143.832C91.9179 143.627 94.3 140.506 91.8768 138.288Z" fill="#414141"/>
<path d="M179.441 137.22L178.496 136.357C175.745 134.673 162.848 136.357 165.148 134.92C174.184 129.293 169.009 85.9216 170.488 73.0252C169.543 71.8752 167.695 71.1359 165.559 71.0948L151.759 70.9305C148.761 70.8895 146.173 72.368 145.845 74.2984C145.105 78.5698 144.448 86.4145 143.914 94.9984V95.0395C145.146 112.741 146.173 133.564 149.089 135.207C151.43 136.522 145.105 136.029 140.67 136.522C140.218 136.809 139.725 137.056 139.15 137.261C137.014 137.959 136.07 139.273 136.152 140.547C136.234 142.148 138 143.709 140.998 143.873H141.45C141.696 143.873 141.902 143.873 142.148 143.873L175.211 142.764C179.441 142.559 181.823 139.438 179.441 137.22Z" fill="#414141"/>
</g>
<defs>
<clipPath id="clip0_491_5454">
<rect width="230" height="230" fill="white"/>
</clipPath>
</defs>
</svg>
