<?xml version="1.0" encoding="utf-8"?>
<!-- Generator: Adobe Illustrator 19.0.0, SVG Export Plug-In . SVG Version: 6.00 Build 0)  -->
<svg version="1.1" id="Capa_1" xmlns="http://www.w3.org/2000/svg" xmlns:xlink="http://www.w3.org/1999/xlink" x="0px" y="0px"
	 viewBox="-202 185 154 139" style="enable-background:new -202 185 154 139;" xml:space="preserve">
<style type="text/css">
	.st0{fill:none;stroke:#4955A8;stroke-width:3;stroke-miterlimit:10;stroke-dasharray:7,7;}
	.st1{fill:#4955A8;stroke:#FF9600;stroke-width:3;}
	.st2{fill:#FF6B55;}
</style>
<path class="st0" d="M-79,287.3h-92c-3.2,0-5.8-2.6-5.8-5.8v-3c0-3.2,2.6-5.8,5.8-5.8h92c3.2,0,5.7,2.6,5.7,5.8v3
	C-73.3,284.7-75.8,287.3-79,287.3z"/>
<line class="st1" x1="-176.8" y1="299.3" x2="-73.3" y2="299.3"/>
<path class="st2" d="M-93.3,236.5l-71.8,51c-4.1,2.9-10,2-12.9-2.2h0c-2.9-4.1-2-10,2.2-12.9l71.8-51c4.1-2.9,10-2,12.9,2.2l0,0
	C-88.2,227.8-89.2,233.6-93.3,236.5z"/>
</svg>
