<?xml version="1.0" encoding="utf-8"?>
<!-- Generator: Adobe Illustrator 19.0.0, SVG Export Plug-In . SVG Version: 6.00 Build 0)  -->
<svg version="1.1" id="Capa_1" xmlns="http://www.w3.org/2000/svg" xmlns:xlink="http://www.w3.org/1999/xlink" x="0px" y="0px"
	 viewBox="-202 237 154 87" style="enable-background:new -202 237 154 87;" xml:space="preserve">
<style type="text/css">
	.st0{fill:none;stroke:#4955A8;stroke-width:3;stroke-miterlimit:10;stroke-dasharray:7,7;}
	.st1{fill:#4955A8;stroke:#FF9600;stroke-width:3;}
	.st2{fill:#FF6B55;}
</style>
<path class="st0" d="M-80.9,287h-92c-3.2,0-5.8-2.6-5.8-5.8v-3c0-3.2,2.6-5.8,5.8-5.8h92c3.2,0,5.8,2.6,5.8,5.8v3
	C-75.2,284.4-77.8,287-80.9,287z"/>
<line class="st1" x1="-178.7" y1="299" x2="-75.2" y2="299"/>
<path class="st2" d="M-84,266.3l-85.1,22.8c-4.9,1.3-10-1.6-11.3-6.5v0c-1.3-4.9,1.6-10,6.5-11.3l85.1-22.8c4.9-1.3,10,1.6,11.3,6.5
	l0,0C-76.2,259.9-79.1,265-84,266.3z"/>
</svg>
